PathFileType	4	(X/Y/Z)	/Users/itak/Documents/Research/Walk-IL/dataset/trc/00006_00004.trc
DataRate	CameraRate	NumFrames	NumMarkers	Units	OrigDataRate	OrigDataStartFrame	OrigNumFrames
100.000000	100.000000	4	53	mm	100.000000	539	616
Frame#	Time	RPSI			LPSI			L3			STRN			T10			C7			CLAV			RBAK			LBAK			LSHO			LUPA			LAEL			LAOL			LWTS			LWPS			LFRA			LIFD			LHPS			LHTS			RSHO			RUPA			RAEL			RAOL			RWTS			RWPS			RFRA			RIFD			RHTS			RHPS			RBHD			LFHD			RFHD			LBHD			LHIP			RHIP			RASI			LASI			LKNE			LTHI			LANK			LTIP			LTOE			LMT1			LMT5			LHEE			RKNE			RTHI			RANK			RTIP			RTOE			RMT1			RMT5			RHEE			
		X1	Y1	Z1	X2	Y2	Z2	X3	Y3	Z3	X4	Y4	Z4	X5	Y5	Z5	X6	Y6	Z6	X7	Y7	Z7	X8	Y8	Z8	X9	Y9	Z9	X10	Y10	Z10	X11	Y11	Z11	X12	Y12	Z12	X13	Y13	Z13	X14	Y14	Z14	X15	Y15	Z15	X16	Y16	Z16	X17	Y17	Z17	X18	Y18	Z18	X19	Y19	Z19	X20	Y20	Z20	X21	Y21	Z21	X22	Y22	Z22	X23	Y23	Z23	X24	Y24	Z24	X25	Y25	Z25	X26	Y26	Z26	X27	Y27	Z27	X28	Y28	Z28	X29	Y29	Z29	X30	Y30	Z30	X31	Y31	Z31	X32	Y32	Z32	X33	Y33	Z33	X34	Y34	Z34	X35	Y35	Z35	X36	Y36	Z36	X37	Y37	Z37	X38	Y38	Z38	X39	Y39	Z39	X40	Y40	Z40	X41	Y41	Z41	X42	Y42	Z42	X43	Y43	Z43	X44	Y44	Z44	X45	Y45	Z45	X46	Y46	Z46	X47	Y47	Z47	X48	Y48	Z48	X49	Y49	Z49	X50	Y50	Z50	X51	Y51	Z51	X52	Y52	Z52	X53	Y53	Z53	

540	5.39	1233.466186523438	1051.830322265625	-195.5541687011719	1207.619995117188	1048.297729492188	-358.0296325683594	1214.344482421875	1113.418090820312	-283.8666076660156	1427.099975585938	1310.234008789062	-303.4307250976562	1181.513793945312	1254.324829101562	-285.4311828613281	1216.979736328125	1523.573364257812	-302.9790344238281	1379.933715820312	1434.717163085938	-305.7648620605469	1175.531494140625	1385.783325195312	-217.9784545898438	1196.187622070312	1481.077270507812	-400.1343383789062	1295.730102539062	1489.194213867188	-478.4271240234375	1266.2861328125	1363.658569335938	-554.5592041015625	1271.550659179688	1145.223022460938	-576.3287963867188	1217.397583007812	1132.458862304688	-487.13232421875	1375.607177734375	901.9698486328125	-514.9421997070312	1299.804809570312	879.7208251953125	-556.3284912109375	1290.800537109375	1030.173706054688	-579.7625732421875	1414.640747070312	720.1569213867188	-487.8058471679688	1339.467407226562	792.9346313476562	-552.3704223632812	1403.490356445312	810.1166381835938	-526.097412109375	1307.724731445312	1513.132934570312	-132.7512512207031	1300.171020507812	1442.375	-58.27714538574219	1264.755615234375	1173.89697265625	-33.62196350097656	1258.242797851562	1145.035400390625	-129.3280029296875	1365.830932617188	902.8817138671875	-60.96523666381836	1302.0341796875	899.0743408203125	5.769290924072266	1274.006103515625	1099.86865234375	-17.6527271270752	1366.48046875	713.5960693359375	-69.99720001220703	1383.257568359375	788.3451538085938	-40.79196929931641	1329.063842773438	795.3239135742188	10.20397281646729	1277.39794921875	1713.30029296875	-369.9261474609375	1461.02783203125	1712.163940429688	-250.9023132324219	1458.657104492188	1712.427368164062	-349.1842956542969	1287.509155273438	1707.616455078125	-226.0547943115234	1290.378540039062	951.82763671875	-477.6955871582031	1361.514770507812	944.1434936523438	-112.9845504760742	1451.539306640625	979.8264770507812	-198.6838073730469	1413.076293945312	998.4795532226562	-431.2292175292969	1359.302978515625	506.4184875488281	-437.5050048828125	1322.972290039062	641.7177124023438	-472.946533203125	1265.110717773438	25.66257286071777	-432.2002563476562	1281.038818359375	273.2404479980469	-450.0585021972656	1486.966674804688	21.51555633544922	-364.8818359375	1436.273803710938	35.95051193237305	-342.1842956542969	1391.5322265625	21.46721076965332	-450.8245544433594	1196.031372070312	32.35529327392578	-379.4527893066406	1355.511352539062	507.9068908691406	-175.6094207763672	1381.462890625	776.9771728515625	-124.4786758422852	1243.218505859375	29.02593040466309	-206.587158203125	1328.96875	386.3192138671875	-179.0976104736328	1466.778442382812	19.11929321289062	-283.7110595703125	1401.838989257812	33.33763885498047	-295.2265930175781	1393.821533203125	26.21110725402832	-199.7440185546875	1182.78515625	32.55044174194336	-243.9005584716797	
541	5.4	1234.921752929688	1051.818237304688	-196.4582977294922	1209.192993164062	1048.181518554688	-358.9815063476562	1215.973510742188	1113.247314453125	-284.8133239746094	1428.504272460938	1310.245361328125	-303.9441833496094	1183.002807617188	1254.064453125	-286.3677368164062	1218.1767578125	1523.430419921875	-303.7560424804688	1381.222900390625	1434.7109375	-306.3303527832031	1176.672607421875	1385.60400390625	-218.8674011230469	1197.54443359375	1480.800537109375	-400.8956604003906	1297.2216796875	1489.10498046875	-479.1377258300781	1267.879516601562	1363.56103515625	-555.337646484375	1273.060180664062	1145.112915039062	-577.1614379882812	1218.75634765625	1132.392211914062	-487.96875	1375.203857421875	900.7716674804688	-516.1648559570312	1299.262451171875	879.3173217773438	-557.66064453125	1291.573486328125	1029.909301757812	-580.733642578125	1412.466674804688	718.672607421875	-489.459228515625	1338.107055664062	792.1812133789062	-553.8847045898438	1402.344116210938	808.9322509765625	-527.6828002929688	1308.658325195312	1513.060424804688	-133.4239654541016	1300.902709960938	1442.319702148438	-58.96533966064453	1264.6376953125	1173.984497070312	-34.31259155273438	1258.448852539062	1145.119384765625	-130.0830688476562	1363.788940429688	902.2159423828125	-60.58130645751953	1299.7060546875	899.170654296875	5.860015392303467	1273.442016601562	1100.080688476562	-18.19912719726562	1363.45361328125	712.717529296875	-69.40029144287109	1379.983276367188	787.4947509765625	-40.15154266357422	1325.763061523438	795.1307983398438	10.54790210723877	1278.3447265625	1713.166259765625	-370.6606750488281	1461.828247070312	1712.292358398438	-251.3787841796875	1459.57666015625	1712.559814453125	-349.6904602050781	1288.277709960938	1707.476196289062	-226.7720947265625	1291.75146484375	951.5324096679688	-478.718994140625	1362.837524414062	944.1453247070312	-113.7751235961914	1453.03125	979.7820434570312	-199.2436828613281	1414.797729492188	998.3089599609375	-431.8333740234375	1359.269165039062	505.8311157226562	-438.0240478515625	1323.381713867188	641.5867309570312	-473.3887634277344	1265.098999023438	25.6055850982666	-432.2155456542969	1280.833618164062	273.0227966308594	-450.27490234375	1486.964233398438	21.50349617004395	-364.894775390625	1436.256591796875	36.21005630493164	-341.9365539550781	1391.5224609375	21.42886924743652	-450.8627624511719	1196.003173828125	32.27072143554688	-379.479736328125	1356.272705078125	507.8092346191406	-176.1139373779297	1382.49755859375	776.8753051757812	-125.0742263793945	1243.247314453125	29.10475730895996	-206.6370239257812	1329.470581054688	386.4609069824219	-179.4856872558594	1466.80859375	19.09822845458984	-283.72802734375	1401.83935546875	33.32665252685547	-295.265869140625	1393.821655273438	26.28079605102539	-199.8013916015625	1182.733764648438	32.71719741821289	-243.9631958007812	
542	5.41	1236.331420898438	1051.8017578125	-197.3542785644531	1210.695556640625	1048.056518554688	-359.927978515625	1217.502319335938	1113.0625	-285.7505493164062	1429.851928710938	1310.222900390625	-304.4526977539062	1184.369995117188	1253.817016601562	-287.3018493652344	1219.351440429688	1523.292236328125	-304.5154113769531	1382.472900390625	1434.671508789062	-306.8862609863281	1177.796752929688	1385.419921875	-219.7261505126953	1198.875244140625	1480.541625976562	-401.6483764648438	1298.664794921875	1488.991455078125	-479.8383178710938	1269.386596679688	1363.443725585938	-556.0969848632812	1274.428833007812	1144.985961914062	-577.9882202148438	1220.004028320312	1132.31201171875	-488.7771301269531	1374.711303710938	899.5911865234375	-517.42333984375	1298.629516601562	878.92626953125	-559.0036010742188	1292.218017578125	1029.641723632812	-581.711181640625	1410.352783203125	717.3418579101562	-491.2630004882812	1336.685424804688	791.464599609375	-555.4385375976562	1401.184204101562	807.8484497070312	-529.3649291992188	1309.581176757812	1512.974365234375	-134.0841522216797	1301.634643554688	1442.246459960938	-59.63967132568359	1264.578979492188	1174.044677734375	-34.95763397216797	1258.56396484375	1145.179565429688	-130.7977600097656	1361.953369140625	901.6122436523438	-60.2993049621582	1297.667602539062	899.240966796875	5.879780769348145	1272.972534179688	1100.253784179688	-18.70806121826172	1360.783569335938	711.9614868164062	-68.99147033691406	1377.07177734375	786.7666015625	-39.70035934448242	1322.860107421875	794.9685668945312	10.77149868011475	1279.251708984375	1713.001098632812	-371.3733520507812	1462.6025390625	1712.426879882812	-251.857421875	1460.459106445312	1712.693359375	-350.1955871582031	1289.022827148438	1707.314697265625	-227.4783325195312	1293.093139648438	951.218017578125	-479.7413940429688	1364.081909179688	944.1527709960938	-114.5449371337891	1454.453491210938	979.734375	-199.7870025634766	1416.46630859375	998.1232299804688	-432.4144287109375	1359.36474609375	505.3026733398438	-438.50830078125	1323.926635742188	641.45361328125	-473.7846374511719	1265.089599609375	25.55623245239258	-432.2237243652344	1280.734252929688	272.8147888183594	-450.487548828125	1486.958984375	21.48808670043945	-364.9102478027344	1436.241088867188	36.48170852661133	-341.6760559082031	1391.51416015625	21.40263175964355	-450.8882446289062	1195.978393554688	32.19897079467773	-379.4966430664062	1357.005615234375	507.71240234375	-176.61669921875	1383.454711914062	776.7326049804688	-125.7474975585938	1243.27880859375	29.17085647583008	-206.6777038574219	1329.97900390625	386.5931701660156	-179.8551177978516	1466.842163085938	19.07779884338379	-283.7415466308594	1401.8408203125	33.31646728515625	-295.3013610839844	1393.829956054688	26.3607063293457	-199.8564758300781	1182.705322265625	32.84210968017578	-244.0403594970703	
543	5.42	1237.6923828125	1051.775634765625	-198.2328796386719	1212.140502929688	1047.928588867188	-360.8573608398438	1218.92822265625	1112.86962890625	-286.6681213378906	1431.141723632812	1310.170776367188	-304.9534912109375	1185.637817382812	1253.5908203125	-288.2269287109375	1220.50146484375	1523.160888671875	-305.2620544433594	1383.681030273438	1434.601928710938	-307.4312133789062	1178.899169921875	1385.235717773438	-220.5566864013672	1200.176879882812	1480.305053710938	-402.394287109375	1300.059692382812	1488.863525390625	-480.5286254882812	1270.812622070312	1363.316040039062	-556.83837890625	1275.670043945312	1144.850830078125	-578.8057861328125	1221.171508789062	1132.22900390625	-489.5528869628906	1374.143188476562	898.4398193359375	-518.71337890625	1297.918212890625	878.5578002929688	-560.3532104492188	1292.75048828125	1029.382934570312	-582.69287109375	1408.294555664062	716.1132202148438	-493.1841430664062	1335.21240234375	790.7893676757812	-557.0240478515625	1399.99462890625	806.8121948242188	-531.0990600585938	1310.487670898438	1512.875610351562	-134.7316284179688	1302.361938476562	1442.159545898438	-60.29975509643555	1264.569091796875	1174.082153320312	-35.57082748413086	1258.608276367188	1145.21728515625	-131.4754333496094	1360.338500976562	901.0761108398438	-60.11859512329102	1295.925170898438	899.2879028320312	5.828508377075195	1272.58837890625	1100.39404296875	-19.19178009033203	1358.476928710938	711.2951049804688	-68.73271179199219	1374.528198242188	786.1282958984375	-39.39995574951172	1320.354125976562	794.846435546875	10.89271545410156	1280.125366210938	1712.809448242188	-372.0630493164062	1463.356201171875	1712.5673828125	-252.3394317626953	1461.311645507812	1712.82763671875	-350.6943969726562	1289.748901367188	1707.13720703125	-228.1712036132812	1294.424438476562	950.9111938476562	-480.7285766601562	1365.26025390625	944.1559448242188	-115.2950210571289	1455.812133789062	979.6845092773438	-200.3145294189453	1418.086791992188	997.9419555664062	-432.9820861816406	1359.568603515625	504.8521728515625	-438.95751953125	1324.673706054688	641.2923583984375	-474.1529541015625	1265.08349609375	25.51371955871582	-432.22705078125	1280.73583984375	272.6239013671875	-450.7078552246094	1486.952880859375	21.46937370300293	-364.9275207519531	1436.2255859375	36.76223373413086	-341.4062805175781	1391.505981445312	21.3852653503418	-450.9044189453125	1195.957885742188	32.14358139038086	-379.5085754394531	1357.690795898438	507.6215515136719	-177.1107330322266	1384.322265625	776.5538330078125	-126.4981994628906	1243.311157226562	29.22578620910645	-206.7123413085938	1330.464111328125	386.699951171875	-180.2098083496094	1466.874267578125	19.05659484863281	-283.755859375	1401.84130859375	33.30720138549805	-295.3345336914062	1393.840087890625	26.43762016296387	-199.9061889648438	1182.6943359375	32.92988586425781	-244.1227416992188	
